<svg width="24" height="26" viewBox="0 0 24 26" fill="none" xmlns="http://www.w3.org/2000/svg">
<g id="Google icon">
<path id="Vector" d="M24.0001 13.281C24.0001 12.4541 23.9201 11.6005 23.7867 10.8003H12.2368V15.5216H18.852C18.5852 17.042 17.705 18.3757 16.398 19.2293L20.3457 22.2968C22.6664 20.1362 24.0001 16.9887 24.0001 13.281Z" fill="#4280EF"/>
<path id="Vector_2" d="M12.2367 25.231C15.5442 25.231 18.3184 24.1373 20.3456 22.2702L16.3978 19.2293C15.3042 19.9762 13.8905 20.403 12.2367 20.403C9.03578 20.403 6.34169 18.2424 5.35475 15.3616L1.30029 18.4824C3.38087 22.6169 7.59538 25.231 12.2367 25.231Z" fill="#34A353"/>
<path id="Vector_3" d="M5.35482 15.3349C4.84801 13.8144 4.84801 12.1606 5.35482 10.6402L1.30036 7.49268C-0.433454 10.9603 -0.433454 15.0414 1.30036 18.4824L5.35482 15.3349Z" fill="#F6B704"/>
<path id="Vector_4" d="M12.2367 5.5988C13.9705 5.57213 15.6776 6.23898 16.9313 7.43931L20.4256 3.91833C18.2117 1.83775 15.2775 0.717444 12.2367 0.744118C7.59538 0.744118 3.38087 3.35818 1.30029 7.49266L5.35475 10.6402C6.34169 7.73273 9.03578 5.5988 12.2367 5.5988Z" fill="#E54335"/>
</g>
</svg>
