<svg width="65" height="64" viewBox="0 0 65 64" fill="none" xmlns="http://www.w3.org/2000/svg">
<g id="Clip path group">
<mask id="mask0_31_1108" style="mask-type:luminance" maskUnits="userSpaceOnUse" x="0" y="0" width="65" height="64">
<g id="clip-path-183">
<path id="Vector" d="M64.0347 0H0.034668V64H64.0347V0Z" fill="white"/>
</g>
</mask>
<g mask="url(#mask0_31_1108)">
<g id="Symbol">
<path id="Caminho 104" d="M32.0347 0C38.3637 0 44.5505 1.87677 49.8129 5.39297C55.0753 8.90918 59.1768 13.9069 61.5988 19.7541C64.0208 25.6014 64.6545 32.0355 63.4198 38.2429C62.1851 44.4503 59.1374 50.1521 54.6621 54.6274C50.1868 59.1027 44.485 62.1504 38.2776 63.3851C32.0702 64.6199 25.636 63.9861 19.7888 61.5641C13.9416 59.1421 8.94385 55.0406 5.42764 49.7782C1.91144 44.5159 0.034668 38.329 0.034668 32C0.034668 23.5131 3.40609 15.3737 9.40725 9.37258C15.4084 3.37142 23.5477 0 32.0347 0Z" fill="#EBD0CE"/>
<path id="Elipse 31" d="M19.5306 37.571C21.5237 36.4203 22.2065 33.8718 21.0558 31.8787C19.9052 29.8857 17.3567 29.2028 15.3636 30.3535C13.3706 31.5042 12.6877 34.0527 13.8384 36.0457C14.9891 38.0388 17.5376 38.7217 19.5306 37.571Z" fill="#545871"/>
<path id="Elipse 32" d="M22.6922 28.0469C24.6853 26.8962 25.3681 24.3477 24.2175 22.3547C23.0668 20.3616 20.5183 19.6788 18.5252 20.8295C16.5322 21.9801 15.8493 24.5286 17 26.5217C18.1507 28.5147 20.6992 29.1976 22.6922 28.0469Z" fill="#545871"/>
<path id="Elipse 33" d="M31.3524 23.0469C33.3454 21.8962 34.0283 19.3477 32.8776 17.3547C31.7269 15.3616 29.1784 14.6788 27.1854 15.8295C25.1923 16.9801 24.5095 19.5286 25.6602 21.5217C26.8108 23.5147 29.3593 24.1976 31.3524 23.0469Z" fill="#545871"/>
<path id="Elipse 34" d="M41.1815 25.071C43.1745 23.9203 43.8574 21.3718 42.7067 19.3787C41.556 17.3857 39.0075 16.7028 37.0145 17.8535C35.0214 19.0042 34.3386 21.5527 35.4893 23.5457C36.6399 25.5388 39.1884 26.2217 41.1815 25.071Z" fill="#545871"/>
<path id="Caminho 102" d="M40.4472 30.9987C38.3414 30.2515 36.5625 29.6042 34.4429 28.865C33.2942 28.401 32.0437 28.2469 30.8167 28.4182C30.6292 28.451 30.4447 28.4995 30.2654 28.5633C29.8642 28.7303 29.4766 28.9283 29.106 29.1553C28.7175 29.3636 28.3495 29.6081 28.007 29.8857C27.862 30.0091 27.7278 30.1446 27.6057 30.2906C26.8482 31.2701 26.3569 32.4289 26.1795 33.6544C25.7737 35.8516 25.4448 37.7158 25.0252 39.9211C24.2262 42.9031 23.1103 46.3383 25.2348 49.0181C25.9012 49.7193 26.749 50.222 27.6839 50.4705C28.6189 50.7189 29.6044 50.7034 30.531 50.4255C31.71 50.0335 34.5813 47.2407 38.1606 45.1742L38.4204 45.0242C41.9996 42.9577 45.8468 41.8531 46.7829 41.0425C47.4845 40.3773 47.9891 39.5315 48.2412 38.5982C48.4934 37.6649 48.4833 36.6801 48.2122 35.7521C46.9599 32.5491 43.427 31.7979 40.4449 30.9989L40.4472 30.9987Z" fill="#545871"/>
</g>
</g>
</g>
</svg>
